<?xml version="1.0" standalone="no"?><!DOCTYPE svg PUBLIC "-//W3C//DTD SVG 1.1//EN" "http://www.w3.org/Graphics/SVG/1.1/DTD/svg11.dtd"><svg t="1567644819425" class="icon" viewBox="0 0 1024 1024" version="1.1" xmlns="http://www.w3.org/2000/svg" p-id="2492" width="128" height="128" xmlns:xlink="http://www.w3.org/1999/xlink"><defs><style type="text/css"></style></defs><path d="M345.553455 472.296727H154.368a109.242182 109.242182 0 0 1-109.125818-109.125818V171.962182A109.242182 109.242182 0 0 1 154.368 62.836364h191.208727a109.242182 109.242182 0 0 1 109.125818 109.125818v191.208727a109.265455 109.265455 0 0 1-109.14909 109.125818zM154.368 106.472727a65.559273 65.559273 0 0 0-65.489455 65.489455v191.208727a65.559273 65.559273 0 0 0 65.489455 65.489455h191.208727a65.559273 65.559273 0 0 0 65.489455-65.489455V171.962182a65.559273 65.559273 0 0 0-65.489455-65.489455H154.368zM345.646545 982.737455H154.437818a109.242182 109.242182 0 0 1-109.125818-109.125819v-191.208727a109.242182 109.242182 0 0 1 109.125818-109.125818h191.208727a109.242182 109.242182 0 0 1 109.125819 109.125818v191.208727a109.265455 109.265455 0 0 1-109.125819 109.125819zM154.437818 616.936727a65.559273 65.559273 0 0 0-65.489454 65.489455v191.208727a65.559273 65.559273 0 0 0 65.489454 65.489455h191.208727a65.559273 65.559273 0 0 0 65.489455-65.489455v-191.208727a65.559273 65.559273 0 0 0-65.489455-65.489455H154.437818zM856.529455 982.737455h-191.208728a109.242182 109.242182 0 0 1-109.125818-109.125819v-191.208727a109.242182 109.242182 0 0 1 109.125818-109.125818h191.208728a109.242182 109.242182 0 0 1 109.125818 109.125818v191.208727a109.265455 109.265455 0 0 1-109.125818 109.125819z m-191.208728-365.800728a65.559273 65.559273 0 0 0-65.489454 65.489455v191.208727a65.559273 65.559273 0 0 0 65.489454 65.489455h191.208728a65.559273 65.559273 0 0 0 65.489454-65.489455v-191.208727a65.559273 65.559273 0 0 0-65.489454-65.489455h-191.208728zM760.832 511.860364a108.776727 108.776727 0 0 1-77.172364-31.930182l-135.214545-135.214546a109.242182 109.242182 0 0 1 0-154.344727l135.214545-135.214545a109.242182 109.242182 0 0 1 154.344728 0l135.191272 135.214545a109.288727 109.288727 0 0 1 0 154.344727l-135.191272 135.214546a108.753455 108.753455 0 0 1-77.172364 31.930182z m0.023273-444.951273c-16.779636 0-33.559273 6.376727-46.312728 19.153454l-135.214545 135.214546a65.559273 65.559273 0 0 0 0 92.602182l135.214545 135.214545a65.559273 65.559273 0 0 0 92.625455 0l135.191273-135.214545a65.559273 65.559273 0 0 0 0-92.602182l-135.191273-135.214546a65.303273 65.303273 0 0 0-46.312727-19.153454z" p-id="2493" fill="#707070"></path></svg>