<?xml version="1.0" standalone="no"?><!DOCTYPE svg PUBLIC "-//W3C//DTD SVG 1.1//EN" "http://www.w3.org/Graphics/SVG/1.1/DTD/svg11.dtd"><svg t="1600140406298" class="icon" viewBox="0 0 1024 1024" version="1.1" xmlns="http://www.w3.org/2000/svg" p-id="1644" width="128" height="128" xmlns:xlink="http://www.w3.org/1999/xlink"><defs><style type="text/css"></style></defs><path d="M778.03 295.42c17.83 18.81 17.83 48.3 0 67.11L616.86 530.3a44.336 44.336 0 0 1-32.24 13.92 44.28 44.28 0 0 1-32.24-13.92l-16.1-16.77-96.68-100.65-128.99 134.18a44.336 44.336 0 0 1-32.24 13.92 44.28 44.28 0 0 1-32.24-13.92c-17.8-18.81-17.8-48.25 0-67.06L407.4 312.19a44.336 44.336 0 0 1 32.24-13.92c12.2 0 23.87 5.03 32.24 13.92l112.78 117.46 128.98-134.23a44.336 44.336 0 0 1 32.24-13.92c12.2 0 23.87 5.03 32.24 13.92h-0.09z m152.99-179.17H93.18v605.41h837.85V116.25z m0-93.12c51.44 0 93.08 41.66 93.08 93.13v605.41c0 51.47-41.64 93.18-93.08 93.18H93.18a93.06 93.06 0 0 1-65.83-27.29A93.218 93.218 0 0 1 0.1 721.66V116.25c0-51.47 41.64-93.13 93.08-93.13h837.84z m-162.9 931.41c0 25.73-20.85 46.59-46.56 46.59H279.38c-25.72 0-46.56-20.86-46.56-46.59s20.85-46.59 46.56-46.59h442.18c25.72 0 46.56 20.86 46.56 46.59z" p-id="1645" fill="#707070"></path></svg>