<?xml version='1.0' encoding='UTF-8'?>
<svg class="icon" style="" viewBox="0 0 1024 1024" version="1.1" xmlns="http://www.w3.org/2000/svg" width="128" height="128">
    <defs>
        <style type="text/css"/>
    </defs>
    <path d="M512 451.33l242.679-242.679c16.754-16.753 43.916-16.753 60.67 0 16.753 16.754 16.753 43.916 0 60.67L572.669 512l242.68 242.679c16.753 16.754 16.753 43.916 0 60.67-16.754 16.753-43.916 16.753-60.67 0L512 572.669 269.321 815.35c-16.754 16.753-43.916 16.753-60.67 0-16.753-16.754-16.753-43.916 0-60.67L451.331 512 208.65 269.321c-16.753-16.754-16.753-43.916 0-60.67 16.754-16.753 43.916-16.753 60.67 0L512 451.331z" fill="#ffffff"/>
</svg>