<?xml version='1.0' encoding='UTF-8'?>
<svg class="icon" viewBox="0 0 1024 1024" version="1.1" xmlns="http://www.w3.org/2000/svg" width="128" height="128">
    <defs>
        <style type="text/css"/>
    </defs>
    <path d="M512 64C264.576 64 64 264.577 64 512s200.576 448 448 448 448-200.576 448-448S759.424 64 512 64zM512 896c-212.078 0-384-171.923-384-384 0-212.077 171.922-384 384-384 212.077 0 384 171.923 384 384C896 724.077 724.077 896 512 896z"/>
    <path d="M650.15 698.047c-8.837-15.305-28.408-20.549-43.713-11.713-92.163 53.211-210.432 21.521-263.642-70.643-9.074-15.717-15.674-32.193-19.932-48.976-0.052-0.206-0.106-0.411-0.157-0.616-0.25-0.998-0.481-1.998-0.714-2.998-0.158-0.682-0.32-1.362-0.471-2.045-0.116-0.525-0.223-1.053-0.334-1.578-0.234-1.107-0.468-2.216-0.683-3.327-0.021-0.11-0.041-0.221-0.061-0.331-2.015-10.524-3.165-21.227-3.414-31.99-0.003-0.152-0.002-0.303-0.005-0.454-0.028-1.348-0.044-2.693-0.043-4.042 0-0.673 0.014-1.345 0.021-2.018 0.009-0.826 0.014-1.653 0.033-2.479 0.028-1.161 0.073-2.322 0.122-3.481 0.015-0.341 0.022-0.682 0.039-1.023 0.361-7.607 1.173-15.174 2.419-22.661 0.021-0.126 0.041-0.254 0.062-0.38 0.197-1.166 0.412-2.327 0.629-3.487 0.083-0.439 0.16-0.878 0.245-1.317 0.159-0.817 0.333-1.632 0.502-2.448 0.172-0.823 0.341-1.647 0.524-2.469 0.092-0.414 0.19-0.826 0.285-1.239 4.19-18.222 11.111-36.128 20.935-53.144 53.21-92.163 171.48-123.853 263.642-70.643l0.001-0.001c15.305 8.836 34.876 3.593 43.713-11.713 8.836-15.305 3.592-34.876-11.713-43.712-0.021-0.013-0.044-0.023-0.066-0.036-59.435-34.292-128.667-43.398-194.951-25.638-20.258 5.428-39.493 13.179-57.428 23.006-1.55 0.595-3.075 1.315-4.558 2.172-0.022 0.012-0.042 0.026-0.063 0.039-59.416 34.327-101.918 89.73-119.679 156.014-0.211 0.788-0.4 1.579-0.604 2.368-0.112 0.428-0.218 0.857-0.328 1.286-0.32 1.268-0.638 2.536-0.938 3.806-0.339 1.415-0.66 2.833-0.974 4.252-0.083 0.376-0.168 0.752-0.25 1.129-3.059 14.115-4.903 28.451-5.52 42.882-0.015 0.338-0.032 0.675-0.045 1.013-0.057 1.463-0.097 2.928-0.128 4.393-0.019 0.799-0.038 1.598-0.048 2.396-0.012 0.985-0.013 1.971-0.013 2.957-0.002 1.284 0 2.568 0.018 3.852 0.007 0.501 0.02 1 0.03 1.501 0.034 1.763 0.083 3.524 0.153 5.284 0.002 0.041 0.004 0.082 0.005 0.123 0.598 14.722 2.475 29.347 5.611 43.741 0.018 0.081 0.036 0.161 0.054 0.243 0.375 1.713 0.765 3.423 1.175 5.129 0.231 0.974 0.476 1.946 0.719 2.919 0.183 0.723 0.363 1.445 0.552 2.166 0.18 0.695 0.346 1.393 0.532 2.088 17.767 66.308 60.293 121.728 119.743 156.052 1.478 0.853 2.996 1.571 4.539 2.166 17.938 9.83 37.178 17.583 57.442 23.013 66.308 17.769 135.566 8.649 195.017-25.675C653.742 732.924 658.987 713.354 650.15 698.047z"/>
</svg>