<?xml version="1.0" standalone="no"?><!DOCTYPE svg PUBLIC "-//W3C//DTD SVG 1.1//EN" "http://www.w3.org/Graphics/SVG/1.1/DTD/svg11.dtd"><svg t="1600140312795" class="icon" viewBox="0 0 1024 1024" version="1.1" xmlns="http://www.w3.org/2000/svg" p-id="1222" width="128" height="128" xmlns:xlink="http://www.w3.org/1999/xlink"><defs><style type="text/css"></style></defs><path d="M302.601584 622.91092h420.286643c25.696738 0 46.534092-20.467402 46.534092-45.704198s-20.837355-45.704198-46.534092-45.704198H302.601584c-25.696738 0-46.534092 20.467402-46.534093 45.704198s20.827356 45.704198 46.534093 45.704198zM302.601584 814.886548h293.092791c25.696738 0 46.534092-20.467402 46.534092-45.704198s-20.827356-45.704198-46.534092-45.704198H302.601584c-25.696738 0-46.534092 20.467402-46.534093 45.704198s20.827356 45.704198 46.534093 45.704198z" p-id="1223" fill="#707070"></path><path d="M884.347729 91.548378h-93.078183V45.834181c0-25.246795-20.837355-45.704198-46.544091-45.704198-25.706736 0-46.544091 20.467402-46.544091 45.704198v45.704198H325.878629V45.834181c0-25.246795-20.837355-45.704198-46.544091-45.704198-25.706736 0-46.544091 20.467402-46.544091 45.704198v45.704198h-93.078184C62.612051 91.548378 0.099987 152.940584 0.099987 228.67097v658.206438c0 75.730386 62.512064 137.122592 139.622275 137.122592h744.635466c77.110211 0 139.622275-61.392206 139.622275-137.122592V228.67097c-0.009999-75.730386-62.522063-137.122592-139.632274-137.122592z m46.544091 795.319031c0 25.246795-20.837355 45.704198-46.544091 45.704198H139.722262c-25.706736 0-46.544091-20.467402-46.544091-45.704198V438.284358h837.713649v448.583051zM93.178171 346.865964V228.67097c0-25.246795 20.837355-45.704198 46.544091-45.704198h93.078183v45.704198c0 16.327927 8.868874 31.42601 23.267046 39.594973 14.398172 8.168963 32.145919 8.168963 46.544092 0 14.398172-8.168963 23.267046-23.257047 23.267046-39.594973v-45.704198h372.312733v45.704198c0 25.236796 20.837355 45.704198 46.544092 45.704197s46.534092-20.457403 46.544091-45.704197v-45.704198h93.078183c25.706736 0 46.544091 20.467402 46.544091 45.704198v118.204993H93.178171z" p-id="1224" fill="#707070"></path></svg>