<?xml version="1.0" standalone="no"?><!DOCTYPE svg PUBLIC "-//W3C//DTD SVG 1.1//EN" "http://www.w3.org/Graphics/SVG/1.1/DTD/svg11.dtd"><svg t="1600140657124" class="icon" viewBox="0 0 1024 1024" version="1.1" xmlns="http://www.w3.org/2000/svg" p-id="1811" width="128" height="128" xmlns:xlink="http://www.w3.org/1999/xlink"><defs><style type="text/css"></style></defs><path d="M804.562373 0c80.797476 0 146.283903 64.07235 146.283903 143.114419v833.135589A48.273688 48.273688 0 0 1 902.084975 1023.987322c-6.826582 0-13.555642-1.414078-19.797088-4.144711l-362.39399-157.547763a19.894611 19.894611 0 0 0-15.798661 0l-362.39399 157.547763a49.200153 49.200153 0 0 1-64.364917-24.185605A46.810849 46.810849 0 0 1 73.142857 976.201247V143.114419C73.142857 64.121111 138.629284 0 219.42676 0h585.135613z m0 95.425866H219.42676a48.273688 48.273688 0 0 0-48.761301 46.371997v761.066387l293.786839-127.754609a119.367665 119.367665 0 0 1 92.987801-0.926464l2.096736 0.877703L853.323674 902.815489V143.16318a48.224927 48.224927 0 0 0-47.395985-47.688553H804.562373z m-196.361759 386.482072a50.077856 50.077856 0 1 1 0 100.204474H318.265918a50.077856 50.077856 0 1 1 0-100.204474h289.934696z m97.522602-195.63034a50.077856 50.077856 0 1 1 0 100.204474H318.265918a50.077856 50.077856 0 0 1 0-100.204474h387.457298z" p-id="1812" fill="#707070"></path></svg>