<?xml version='1.0' encoding='UTF-8'?>
<svg class="icon" style="" viewBox="0 0 1024 1024" version="1.1" xmlns="http://www.w3.org/2000/svg" width="128" height="128">
    <defs>
        <style type="text/css"/>
    </defs>
    <path d="M215.488 730.624l44.288 44.352 44.288-44.352-44.288-44.352-44.288 44.352z m94.656-464.256l-45.248-45.248-45.248 45.248 45.248 45.248 45.248-45.248zM512 128a32 32 0 0 0-32 32v320.768h-256a32 32 0 0 0 0 64H512a32 32 0 0 0 32-32V160A32 32 0 0 0 512 128z m-32 768h64v-64h-64v64zM832 480v64h64v-64h-64zM512 0a512 512 0 1 0 0 1024A512 512 0 0 0 512 0z m0 960A448 448 0 1 1 512 64a448 448 0 0 1 0 896z m194.432-695.232l44.288 44.352 44.224-44.352-44.224-44.416-44.288 44.416z m-9.344 464.128l45.248 45.248 45.248-45.248-45.248-45.248-45.248 45.248z" fill="#323333"/>
</svg>