<?xml version='1.0' encoding='UTF-8'?>
<svg class="icon" style="" viewBox="0 0 1024 1024" version="1.1" xmlns="http://www.w3.org/2000/svg" width="128" height="128">
    <defs>
        <style type="text/css"/>
    </defs>
    <path d="M510.19264 13.90592C233.09824 13.90592 7.68 239.32416 7.68 516.39296S233.09824 1018.88 510.19264 1018.88c277.04832 0 502.46144-225.41312 502.46144-502.48704S787.24096 13.90592 510.19264 13.90592zM509.06624 729.29792c-218.64448 0-312.6784-212.65408-312.6784-212.65408S299.6224 307.41504 511.21152 307.71712c211.64544 0.31232 310.49728 213.7088 310.49728 213.7088S727.6032 729.29792 509.06624 729.29792z" fill="#8a8a8a"/>
    <path d="M510.5664 386.10944c-75.84256 0-130.62144 57.04192-130.62144 130.5344 0 73.35936 54.77888 130.58048 130.62144 130.58048 75.7504 0 130.49344-57.22112 130.49344-130.58048C641.05984 443.15136 586.32192 386.10944 510.5664 386.10944zM510.5664 594.96448c-43.3664 0-78.3616-36.36736-78.3616-78.32064 0-41.9584 34.99008-78.27456 78.3616-78.40256 43.27424-0.05632 78.32576 36.44416 78.32576 78.40256C588.89728 558.60224 553.84064 594.96448 510.5664 594.96448z" fill="#8a8a8a"/>
</svg>