<?xml version="1.0" standalone="no"?><!DOCTYPE svg PUBLIC "-//W3C//DTD SVG 1.1//EN" "http://www.w3.org/Graphics/SVG/1.1/DTD/svg11.dtd"><svg t="1525254555271" class="icon" style="" viewBox="0 0 1024 1024" version="1.1" xmlns="http://www.w3.org/2000/svg" p-id="1851" xmlns:xlink="http://www.w3.org/1999/xlink" width="200" height="200"><defs><style type="text/css"></style></defs><path d="M512 1024C229.248 1024 0 794.752 0 512S229.248 0 512 0s512 229.205333 512 512c0 282.752-229.248 512-512 512z m0-981.333333C252.8 42.666667 42.666667 252.8 42.666667 512s210.133333 469.333333 469.333333 469.333333 469.333333-210.133333 469.333333-469.333333S771.2 42.666667 512 42.666667z" fill="#7D7D7D" p-id="1852"></path><path d="M534.314667 545.450667s0-48.896-23.552-51.370667c-23.552-2.56-96.682667 0-96.682667 0V343.68h109.056s-1.237333-50.133333-22.272-50.133333H323.626667L353.365333 213.333333s-44.629333 2.517333-60.714666 31.317334C276.48 273.493333 225.706667 417.621333 225.706667 417.621333s17.365333 7.509333 45.866666-13.781333c28.501333-21.333333 38.4-58.88 38.4-58.88l52.053334-2.56 1.28 152.917333s-90.453333-1.28-109.098667 0c-18.56 1.28-28.501333 51.370667-28.501333 51.370667h137.6s-12.416 85.248-47.104 146.645333C280.234667 754.773333 213.333333 803.626667 213.333333 803.626667s48.341333 20.053333 95.445334-7.509334c47.061333-28.842667 81.792-152.917333 81.792-152.917333l110.293333 139.093333s9.898667-66.389333-1.28-85.205333c-12.373333-18.773333-76.8-93.994667-76.8-93.994667l-28.501333 25.088 19.797333-82.730666h120.234667z m28.501333-255.658667l-1.28 452.437333h44.629333l16.128 56.362667 78.08-56.362667H810.666667V289.792h-247.893334z m198.272 402.304h-52.053333l-65.706667 51.370667-14.848-51.370667h-13.653333V341.162667h146.261333v350.933333z" fill="#7D7D7D" p-id="1853"></path></svg>