<?xml version="1.0" standalone="no"?><!DOCTYPE svg PUBLIC "-//W3C//DTD SVG 1.1//EN" "http://www.w3.org/Graphics/SVG/1.1/DTD/svg11.dtd"><svg class="icon" viewBox="0 0 1025 1024" version="1.1" xmlns="http://www.w3.org/2000/svg" width="128.125" height="128"><defs><style type="text/css"></style></defs><path d="M564.359476 512.61025L929.045054 146.460072a36.615018 36.615018 0 0 0-51.749226-51.749226L512.61025 459.640524 147.924672 94.954946A36.615018 36.615018 0 0 0 96.175447 146.460072l364.685578 366.150178L96.175447 876.075328a36.370918 36.370918 0 0 0 0 51.749225 36.615018 36.615018 0 0 0 51.749225 0L512.61025 563.138975 877.295828 927.580453a36.615018 36.615018 0 0 0 51.749226 0 36.370918 36.370918 0 0 0 0-51.749225z" fill="#707070"></path></svg>