<?xml version="1.0" standalone="no"?><!DOCTYPE svg PUBLIC "-//W3C//DTD SVG 1.1//EN" "http://www.w3.org/Graphics/SVG/1.1/DTD/svg11.dtd"><svg t="1557200033997" class="icon" style="" viewBox="0 0 1024 1024" version="1.1" xmlns="http://www.w3.org/2000/svg" p-id="1120" xmlns:xlink="http://www.w3.org/1999/xlink" width="200" height="200"><defs><style type="text/css"></style></defs><path d="M895.341661 1022.495224H130.163115c-28.590742 0-51.162381-23.324026-51.16238-51.162381V55.676708c0-28.590742 23.324026-51.162381 51.16238-51.16238h492.814108v60.191036H139.191771v897.598824h747.121234V329.545922h60.191036v641.786921c0 28.590742-23.324026 51.162381-51.16238 51.162381z" fill="#515151" p-id="1121"></path><path d="M239.259368 366.412932h229.478325v60.191036H239.259368zM239.259368 761.416605h229.478325v60.191036H239.259368zM239.259368 563.538575h515.385746v60.191036H239.259368zM893.836885 375.441587H628.243938c-29.34313 0-52.667157-23.324026-52.667156-52.667156V57.181484c0-29.34313 23.324026-52.667157 52.667156-52.667156h12.790595l306.221896 306.221895V323.526819c-0.752388 28.590742-24.076414 51.914769-53.419544 51.914768z m-258.069067-60.191036h230.9831L635.767818 85.019838v230.230713z" fill="#515151" p-id="1122"></path></svg>